<svg xmlns="http://www.w3.org/2000/svg" viewBox="0 0 1200.0 1137.0"> <g transform="translate(0.000000,1137.000000) scale(0.100000,-0.100000)" fill="#0a0a0a" stroke="none"> <path d="M0 5685 l0 -5685 6000 0 6000 0 0 5685 0 5685 -6000 0 -6000 0 0 -5685z m3988 3735 c40 -11 95 -21 124 -21 43 -1 47 -3 23 -8 -80 -18 -265 40 -265 82 0 6 10 1 23 -11 13 -12 56 -31 95 -42z m2602 -304 c502 -55 1004 -176 1423 -342 l49 -19 16 21 c10 12 22 29 27 39 8 14 11 5 13 -41 1 -32 4 -60 6 -62 9 -8 185 20 241 39 205 69 514 114 624 90 29 -6 69 -11 91 -11 79 0 44 -52 -55 -84 -70 -22 -76 -33 -23 -41 45 -7 154 -52 146 -60 -2 -2 -27 4 -55 15 -154 58 -627 94 -699 53 -12 -7 -36 -15 -55 -18 -60 -11 -301 -82 -384 -114 -44 -17 -85 -31 -91 -31 -6 0 -44 -23 -85 -52 -78 -55 -522 -267 -617 -294 -198 -58 273 24 608 105 765 186 1196 171 1419 -47 75 -74 102 -129 157 -320 94 -327 104 -350 193 -435 87 -84 76 -115 -14 -37 -70 61 -145 35 -145 -49 0 -54 -34 -145 -71 -192 -17 -22 -29 -42 -26 -45 3 -3 29 -21 58 -40 186 -120 -496 147 -819 321 -57 30 -106 55 -109 55 -10 0 -271 154 -328 195 -94 66 -95 64 -11 -28 177 -195 446 -402 786 -607 503 -303 745 -505 1083 -910 241 -287 253 -304 381 -542 67 -125 194 -453 180 -467 -2 -2 -59 49 -127 115 -432 419 -680 594 -1257 887 -315 160 -392 187 -289 100 25 -21 86 -80 135 -132 96 -101 219 -206 409 -346 785 -582 1175 -1089 1321 -1719 10 -41 21 -73 25 -70 4 2 11 -1 16 -8 5 -9 10 -1 14 22 l5 35 17 -53 c9 -30 19 -70 22 -90 l6 -37 -21 38 c-30 55 -31 46 -3 -40 41 -129 49 -273 15 -298 -7 -6 -12 -23 -10 -40 2 -20 -1 -29 -9 -27 -7 1 -13 -2 -13 -8 0 -6 -27 -10 -60 -10 -93 0 -137 -29 -165 -110 -22 -63 -22 -193 -1 -258 10 -29 16 -58 13 -65 -2 -6 -14 19 -27 57 -24 74 -24 84 0 341 15 164 13 371 -5 405 -22 42 -68 39 -77 -5 -2 -11 -10 -19 -18 -17 -10 2 -12 -10 -7 -60 4 -35 9 -135 12 -223 4 -88 8 -171 11 -185 3 -20 2 -22 -6 -8 -6 9 -19 70 -31 135 -90 524 -243 868 -531 1197 -167 191 -315 341 -408 415 -52 41 -129 107 -171 146 -41 38 -134 110 -205 159 -71 50 -160 114 -199 144 -210 163 -342 252 -264 180 35 -33 307 -352 360 -423 98 -130 220 -368 277 -540 83 -252 198 -450 320 -553 26 -22 44 -43 41 -47 -7 -6 -106 73 -188 149 -76 71 -186 229 -301 433 -111 195 -218 373 -225 373 -3 0 9 -29 25 -65 16 -36 59 -147 96 -248 134 -370 196 -466 440 -687 147 -134 278 -264 348 -349 50 -60 90 -130 263 -467 166 -322 241 -441 374 -598 50 -58 86 -106 82 -106 -16 0 -83 50 -93 70 -16 30 -55 24 -98 -15 -21 -19 -68 -48 -105 -64 l-66 -30 -20 -68 c-11 -37 -22 -106 -26 -153 -3 -47 -15 -119 -25 -160 -11 -41 -17 -61 -15 -45 45 282 -17 598 -164 830 -21 33 -56 92 -79 130 -67 115 -270 327 -422 441 -117 88 -116 81 6 -38 533 -519 651 -1444 267 -2103 -25 -44 -46 -87 -46 -95 0 -35 -143 -185 -247 -259 -181 -128 -314 -206 -377 -220 -28 -7 -60 -22 -70 -33 -10 -11 -38 -34 -63 -51 -106 -72 -222 -183 -274 -259 -20 -29 -62 -81 -94 -116 l-59 -62 -171 0 c-195 0 -184 -5 -171 85 17 125 96 261 254 440 361 408 548 822 571 1260 13 273 -67 533 -273 879 -53 89 -297 356 -325 356 -4 0 22 -57 57 -128 302 -606 284 -1289 -45 -1692 -20 -25 -56 -74 -80 -110 -47 -71 -286 -317 -297 -306 -4 3 3 19 15 34 26 32 55 82 48 82 -6 0 -86 -116 -86 -124 0 -9 -437 -441 -521 -515 -48 -42 -122 -118 -164 -168 -74 -88 -80 -93 -117 -93 -34 0 -38 3 -38 25 0 37 -38 52 -88 36 -20 -7 -50 -16 -66 -21 l-29 -9 24 25 c21 23 158 116 464 316 232 152 491 375 560 483 18 27 52 71 76 96 236 249 322 847 176 1225 -70 182 -150 316 -290 488 -88 109 -115 124 -48 26 85 -123 199 -410 220 -551 72 -491 -15 -771 -356 -1135 -77 -83 -220 -195 -477 -374 -98 -69 -206 -149 -240 -177 -33 -29 -108 -90 -166 -135 -58 -45 -159 -136 -224 -200 -104 -104 -123 -118 -152 -118 -19 0 -34 3 -34 8 0 10 146 161 200 207 25 20 36 33 25 27 -34 -17 -189 -156 -224 -201 l-33 -41 -482 0 -483 0 -46 59 c-101 128 -379 354 -722 586 -475 321 -647 513 -758 847 -113 338 -34 870 179 1198 41 64 64 114 27 60 -9 -14 -42 -54 -73 -90 -195 -223 -334 -570 -347 -865 -12 -281 52 -574 161 -734 18 -25 48 -68 67 -96 131 -192 429 -446 764 -652 200 -123 355 -227 405 -272 l45 -40 -177 -1 -176 0 -53 62 c-30 35 -168 180 -309 323 -140 143 -300 309 -355 368 -65 71 -119 119 -155 139 -175 98 -381 391 -473 673 -50 153 -60 213 -65 397 -8 331 50 593 199 900 38 77 68 143 65 145 -9 9 -141 -125 -217 -220 -357 -444 -448 -966 -259 -1492 105 -291 184 -424 420 -705 228 -272 293 -396 289 -549 l-1 -36 -9 37 c-13 58 -63 161 -88 183 -23 20 -23 20 -39 0 -69 -82 -105 -88 -268 -45 -40 11 -76 20 -79 20 -3 0 -5 6 -5 13 0 15 -74 90 -82 82 -2 -3 -13 5 -24 17 -10 12 -13 18 -6 14 20 -12 14 6 -12 33 -14 15 -65 91 -114 171 -49 80 -127 206 -174 280 -176 278 -247 431 -303 654 -152 603 53 1337 514 1844 42 46 85 96 96 110 l20 27 -21 -15 c-724 -520 -1007 -1067 -915 -1773 47 -367 152 -573 447 -887 83 -88 90 -103 19 -39 -79 71 -140 99 -216 99 -64 0 -74 3 -95 25 -13 14 -32 25 -43 25 -23 0 -84 52 -87 75 -3 20 -25 47 -32 40 -7 -7 -52 36 -52 49 1 6 12 -2 25 -19 36 -44 30 -25 -14 47 -215 345 -279 883 -161 1354 77 306 290 689 451 811 23 18 39 33 34 33 -4 0 -50 -31 -101 -70 -326 -244 -543 -590 -604 -960 -12 -69 -22 -129 -24 -134 -1 -5 -10 15 -19 43 -28 88 -48 109 -115 116 -52 7 -61 11 -109 61 -56 57 -81 66 -100 35 -7 -11 -41 -36 -75 -56 -35 -21 -81 -52 -104 -70 -39 -32 -129 -87 -109 -67 6 6 53 45 105 87 218 177 289 276 522 730 230 446 211 421 572 780 346 345 370 375 445 577 104 275 125 329 163 411 62 136 39 114 -47 -45 -43 -79 -83 -150 -90 -158 -17 -21 -110 -170 -158 -255 -99 -174 -233 -323 -412 -461 -78 -60 -68 -46 67 93 162 166 197 230 334 598 45 120 92 228 111 255 17 25 45 70 61 100 36 67 144 209 261 344 117 135 170 200 171 209 1 21 -24 4 -230 -163 -25 -20 -90 -67 -145 -105 -55 -37 -136 -98 -180 -135 -44 -36 -111 -92 -150 -123 -625 -506 -999 -1102 -1050 -1677 -3 -41 -13 -101 -21 -132 -8 -32 -19 -79 -23 -105 -11 -55 -71 -226 -78 -220 -2 3 5 38 17 78 23 86 23 82 9 74 -6 -4 -17 1 -24 11 -13 17 -15 13 -16 -36 -1 -30 -4 -41 -5 -25 -19 163 -54 214 -193 284 l-62 32 3 108 c3 99 2 107 -14 103 -12 -3 -18 1 -18 11 0 8 -5 17 -11 19 -6 2 -15 46 -20 98 -11 110 -17 134 -18 71 -1 -24 -4 -41 -8 -37 -5 4 -10 107 -13 229 -5 244 -15 275 -55 185 -24 -55 -60 -88 -97 -88 l-30 0 37 65 c89 160 148 294 223 510 15 44 14 11 -3 -130 -8 -65 -15 -163 -15 -216 0 -53 -9 -148 -20 -210 -19 -107 -26 -203 -13 -169 4 8 12 20 19 27 15 15 48 18 39 3 -3 -5 5 -15 19 -21 34 -16 37 -27 19 -97 -8 -34 -12 -69 -8 -79 4 -12 19 32 40 125 123 522 296 817 750 1281 153 156 310 296 377 334 21 12 38 29 38 37 0 8 11 22 24 30 78 48 246 168 323 230 74 61 433 403 433 413 0 5 -526 -260 -602 -304 -38 -22 -101 -58 -140 -80 -196 -112 -436 -284 -612 -438 -272 -238 -367 -328 -403 -380 -18 -26 -6 26 26 110 110 293 208 473 401 734 53 72 112 153 130 180 81 121 368 401 622 606 110 90 328 235 515 344 265 155 465 297 626 447 100 93 228 231 197 213 -8 -5 -106 -66 -217 -137 -353 -225 -929 -487 -1123 -512 l-45 -6 45 25 c25 13 56 33 68 43 l24 18 -39 42 c-43 47 -73 124 -73 190 0 92 -81 132 -138 68 -36 -41 -65 -58 -86 -50 -25 10 -19 20 33 57 84 61 120 133 201 402 29 94 67 203 86 242 149 314 615 388 1319 211 160 -40 582 -127 793 -163 49 -9 31 10 -22 24 -54 13 -351 148 -582 264 -617 310 -1201 338 -1536 75 -21 -16 -38 -27 -38 -24 0 10 106 84 175 122 149 81 141 69 80 118 -75 62 -49 75 155 83 175 7 283 -12 609 -108 75 -22 116 -24 150 -6 30 15 47 68 31 97 -18 33 -5 22 28 -24 l32 -45 86 41 c310 145 995 297 1479 327 219 14 894 6 1065 -13z m-3360 -226 c18 -6 2 -8 -51 -9 -42 -1 -98 -3 -125 -6 -49 -6 -49 -6 -19 9 32 16 153 19 195 6z m6532 -2049 c468 -188 765 -453 972 -868 129 -259 201 -558 144 -595 -50 -33 -71 -117 -48 -198 5 -19 14 -64 19 -100 5 -36 12 -81 16 -100 3 -19 -14 33 -39 115 -158 531 -353 944 -576 1224 -162 203 -416 441 -540 506 -73 39 -79 45 -48 45 15 0 60 -13 100 -29z m-7372 15 c0 -2 -27 -20 -61 -40 -106 -63 -312 -247 -438 -390 -287 -327 -506 -754 -657 -1285 -36 -124 -67 -227 -70 -230 -3 -3 -3 5 0 19 3 14 12 68 21 120 9 52 20 111 26 131 18 72 11 113 -32 189 -51 87 -50 122 11 309 144 445 379 744 793 1009 120 77 407 196 407 168z m-909 -1997 c-40 -78 -154 -323 -217 -468 -26 -60 -25 -26 2 55 42 128 245 527 260 512 2 -3 -18 -47 -45 -99z m9115 -86 c83 -148 204 -405 224 -478 36 -128 16 -108 -30 30 -28 85 -77 196 -142 323 -98 190 -125 255 -52 125z m318 -323 c26 -57 67 -139 91 -182 51 -88 51 -88 27 -88 -29 0 -47 28 -72 108 -25 84 -57 112 -85 76 -20 -26 -31 -8 -40 65 -3 31 -17 113 -31 184 -37 194 -30 215 20 67 24 -69 64 -172 90 -230z m-9965 -347 c-6 -15 -14 -32 -19 -38 -4 -5 -10 -23 -12 -40 -2 -22 -9 -31 -25 -33 -33 -5 -29 15 18 81 45 63 53 70 38 30z m865 -795 c-30 -91 -69 -169 -133 -266 -34 -52 -91 -149 -127 -215 -127 -236 -294 -407 -446 -459 -18 -6 -44 -20 -58 -31 l-25 -19 25 7 c20 6 23 5 12 -6 -23 -24 -152 -23 -175 2 -30 32 -80 49 -144 50 -57 1 -56 1 32 15 50 7 117 21 151 29 75 19 78 19 70 -1 -8 -20 20 -54 44 -54 10 0 21 7 24 15 6 16 -13 55 -26 55 -27 0 3 25 74 62 151 78 319 217 391 322 84 124 226 363 283 478 43 88 54 94 28 16z m8527 -160 c178 -356 340 -538 597 -667 71 -36 71 -35 32 -80 -28 -33 -30 -33 -61 -21 -121 51 -353 286 -410 417 -10 24 -43 85 -73 136 -88 150 -192 377 -172 377 3 0 42 -73 87 -162z m884 -756 l100 -18 -49 -7 c-48 -7 -126 -43 -126 -59 0 -14 -67 -9 -108 8 l-39 15 29 30 c19 19 28 35 24 46 -7 17 -21 19 169 -15z m-7060 -1671 c3 -10 30 -55 59 -99 39 -57 50 -82 41 -86 -7 -2 -20 -26 -28 -53 l-14 -48 -11 40 c-7 22 -23 83 -37 135 -15 52 -28 103 -31 113 -7 23 13 22 21 -2z m3706 -73 c-11 -40 -25 -101 -32 -135 -13 -72 -22 -78 -39 -28 -14 44 -31 44 -65 3 l-27 -33 20 35 c152 269 183 303 143 158z"/> <path d="M5511 9030 c-240 -16 -733 -94 -787 -124 l-29 -17 30 5 c154 26 494 12 619 -25 171 -51 259 -111 370 -254 48 -60 100 -126 116 -145 l29 -35 -14 50 c-9 28 -18 61 -22 75 -20 79 -123 266 -187 338 -38 43 137 -7 273 -78 64 -34 77 -38 90 -26 35 31 328 142 340 130 3 -2 -11 -21 -30 -42 -107 -113 -145 -183 -184 -340 -14 -56 -25 -104 -25 -107 0 -15 25 13 112 127 134 175 141 182 217 222 141 74 357 115 605 115 178 0 190 3 114 24 -307 88 -1114 141 -1637 107z"/> <path d="M7055 8863 c-196 -25 -468 -143 -560 -243 l-30 -32 30 15 c154 77 555 131 1030 138 174 3 138 -17 -110 -60 -71 -13 -137 -26 -145 -29 -8 -3 -18 -4 -23 -4 -32 7 -357 -93 -357 -110 0 -14 219 -58 291 -58 97 0 159 17 299 83 63 29 135 61 160 70 69 26 76 32 61 51 -11 13 -11 16 2 16 8 0 17 -5 19 -10 2 -7 27 -4 71 6 37 10 64 20 60 24 -27 24 -293 103 -388 115 -27 4 -85 13 -129 21 -72 13 -209 16 -281 7z"/> <path d="M4582 8839 c-108 -14 -442 -113 -442 -131 0 -6 12 -8 29 -5 15 3 32 2 37 -3 5 -5 47 -22 94 -38 47 -17 123 -48 170 -69 219 -102 410 -129 548 -78 67 25 67 25 -36 59 -238 78 -509 126 -707 126 -50 0 -78 15 -43 23 222 55 991 6 1152 -73 22 -11 42 -17 45 -15 13 13 -29 60 -69 78 -25 10 -90 39 -145 64 -145 64 -191 73 -395 72 -96 -1 -203 -5 -238 -10z"/> <path d="M8910 8079 c0 -24 40 -81 61 -86 10 -3 19 -9 19 -13 0 -4 -37 3 -82 16 -82 24 -132 29 -162 18 -26 -10 -19 -20 22 -32 87 -26 150 -87 278 -266 101 -143 115 -163 169 -241 69 -101 122 -162 131 -152 10 10 -13 256 -32 340 -55 240 -197 410 -355 425 -37 3 -49 1 -49 -9z"/> <path d="M3022 8051 c-73 -25 -148 -78 -182 -129 -82 -124 -151 -411 -138 -580 l3 -44 44 64 c56 79 189 249 207 264 8 6 14 15 14 19 0 4 27 52 60 105 67 109 120 163 206 212 l58 32 -34 8 c-19 5 -66 6 -104 2 -64 -5 -68 -4 -61 13 22 53 5 61 -73 34z"/> <path d="M6750 7994 c-337 -51 -514 -230 -605 -614 -42 -173 -30 -345 45 -641 40 -156 39 -155 118 -192 187 -87 412 -1 583 225 70 91 148 153 268 210 l84 41 81 -18 c196 -42 191 -86 -8 -72 l-81 5 43 -15 c50 -18 47 -28 -11 -37 -29 -5 -61 -21 -100 -51 -61 -49 -74 -71 -31 -55 36 14 108 12 179 -4 33 -8 87 -17 120 -20 107 -12 269 -38 290 -47 28 -13 -81 -1 -170 17 -115 25 -230 28 -322 11 -161 -31 -130 -44 36 -16 90 15 139 11 291 -26 80 -19 153 -35 163 -35 52 0 121 -77 96 -106 -11 -13 -26 -15 -86 -9 -40 4 -78 3 -85 -1 -7 -5 -20 -9 -28 -9 -9 0 -14 -7 -12 -17 2 -12 -4 -18 -17 -18 -36 0 -51 -12 -115 -94 -113 -145 -178 -186 -326 -206 -128 -17 -139 -25 -213 -137 -108 -166 -108 -164 10 -378 104 -189 147 -249 239 -330 l84 -75 63 0 c103 0 199 53 384 212 190 163 322 392 343 592 7 71 8 62 6 -67 -2 -157 10 -168 20 -18 5 68 1 108 -16 191 -13 58 -22 120 -22 139 0 19 -3 29 -7 22 -8 -12 -30 55 -46 139 -4 19 -14 48 -22 64 l-15 28 49 -33 c66 -45 130 -115 200 -214 68 -99 78 -104 52 -31 -10 30 -25 90 -32 133 -18 104 -18 103 -251 455 -86 131 -190 255 -320 383 -59 58 -66 71 -81 159 -60 341 -461 614 -825 560z"/> <path d="M4973 7961 c-244 -60 -468 -306 -503 -553 l-11 -73 -132 -135 c-150 -152 -179 -190 -262 -340 -32 -58 -82 -144 -112 -191 -54 -87 -114 -229 -127 -304 -4 -22 -10 -49 -13 -60 -3 -11 16 9 42 45 27 36 88 105 137 154 48 49 88 93 88 97 0 5 7 9 15 9 12 0 15 -13 15 -55 0 -30 4 -55 9 -55 16 0 19 -39 4 -52 -139 -115 -145 -489 -12 -715 78 -132 284 -311 454 -395 187 -92 275 -31 554 386 127 190 132 221 40 309 -107 101 -209 163 -293 177 -135 22 -246 91 -347 215 -69 85 -117 109 -204 103 -59 -5 -63 -4 -52 12 8 14 8 25 -1 45 -18 39 -15 65 7 65 42 0 52 10 35 35 -14 22 -13 23 23 38 51 20 212 44 351 53 82 5 115 11 119 20 6 17 56 18 84 3 35 -18 66 -2 42 23 -22 21 -138 67 -190 75 -41 6 -43 20 -3 20 17 0 30 -4 30 -9 0 -4 5 -8 10 -8 6 0 10 7 10 15 0 15 -24 17 -202 19 -62 1 -5 31 125 66 97 27 118 23 227 -43 121 -73 213 -150 277 -231 159 -205 471 -276 607 -139 80 80 144 478 111 688 -62 396 -241 634 -517 690 -108 21 -340 19 -435 -4z"/> <path d="M8959 7723 c16 -26 52 -86 80 -132 28 -46 53 -99 57 -117 10 -55 24 -39 24 27 0 74 -6 85 -93 179 -86 93 -106 105 -68 43z"/> <path d="M3024 7640 c-51 -88 -74 -113 -50 -56 8 20 13 36 11 36 -10 0 -34 -59 -45 -113 -22 -109 0 -84 84 96 65 137 65 148 0 37z"/> <path d="M6011 7085 c-1 -16 -6 -101 -11 -187 -5 -87 -12 -175 -16 -195 -6 -37 -6 -37 10 -16 11 14 23 20 33 16 14 -5 15 -1 8 28 -4 19 -11 113 -15 209 -3 96 -7 162 -9 145z"/> <path d="M8750 6946 c19 -20 40 -34 48 -31 7 2 11 1 7 -4 -17 -28 258 -226 463 -333 323 -167 503 -298 720 -522 57 -58 95 -92 85 -74 -10 17 -56 72 -103 122 -47 50 -110 121 -138 158 -65 82 -206 216 -286 271 -33 22 -107 76 -165 120 -119 90 -317 192 -490 252 -58 19 -121 45 -140 57 l-36 21 35 -37z"/> <path d="M3235 6946 c-127 -40 -691 -349 -750 -412 -11 -11 -45 -43 -75 -69 -30 -27 -54 -53 -53 -57 2 -4 -3 -8 -10 -8 -11 0 -102 -98 -102 -110 0 -3 -15 -20 -33 -39 -17 -19 -32 -40 -32 -48 0 -8 -31 -45 -68 -83 -38 -37 -83 -86 -100 -107 -17 -22 24 14 91 80 146 144 361 307 535 405 319 180 419 243 510 318 53 45 111 88 128 97 79 41 52 62 -41 33z"/> <path d="M4525 6733 c-34 -7 -79 -26 -95 -39 -8 -7 -26 -15 -40 -17 -39 -9 124 4 233 18 70 9 73 20 7 34 -52 11 -70 12 -105 4z"/> <path d="M4713 6574 c-31 -81 68 -237 169 -264 172 -47 329 89 228 198 -39 42 -69 30 -135 -53 -31 -39 -64 -24 -115 54 -49 73 -130 110 -147 65z"/> <path d="M7248 6573 c-8 -10 -22 -31 -32 -48 -67 -110 -119 -109 -197 5 -19 29 -32 22 -70 -38 -36 -57 -36 -82 -3 -122 126 -149 377 -65 410 138 12 73 -63 118 -108 65z"/> <path d="M5918 6381 c-41 -5 -67 -14 -100 -38 -23 -18 -87 -62 -140 -99 -161 -110 -175 -129 -283 -394 -37 -91 -94 -221 -127 -290 -97 -201 -150 -358 -188 -555 -18 -95 -28 -112 -76 -136 -77 -37 -281 -245 -261 -266 3 -2 54 -9 114 -14 116 -10 253 -41 292 -66 49 -32 11 -37 -234 -34 l-235 3 0 -35 0 -34 133 -7 c72 -4 164 -9 203 -11 82 -4 186 -35 264 -78 69 -38 66 -35 52 -49 -8 -8 -24 -5 -63 16 -173 90 -915 112 -1218 37 -42 -11 -109 -25 -148 -31 -40 -7 -73 -14 -73 -17 0 -9 102 6 197 28 144 35 1003 29 1003 -7 0 -10 -29 -14 -115 -16 -63 -2 -115 1 -115 5 0 5 -10 5 -22 1 -20 -6 -59 -11 -95 -13 -8 -1 -13 -14 -13 -31 l0 -30 65 0 c37 0 65 4 65 10 0 11 120 14 158 4 12 -4 22 -13 22 -20 0 -11 16 -14 65 -14 71 0 165 -17 165 -30 0 -5 -96 -6 -212 -3 -138 4 -239 2 -288 -6 -92 -14 -386 -80 -415 -92 -15 -7 -13 -8 10 -3 205 43 359 62 403 49 26 -7 108 -16 182 -19 74 -4 176 -13 225 -22 50 -8 124 -17 165 -20 103 -7 142 -13 135 -24 -12 -20 -132 -22 -240 -4 -450 75 -1021 -65 -1310 -321 -39 -34 -18 -22 75 41 170 116 433 219 680 265 79 15 456 13 548 -2 116 -20 76 -29 -132 -29 -237 0 -235 1 -156 -80 158 -162 383 -147 830 57 247 112 229 99 224 175 -17 226 -26 250 -111 305 -30 19 -101 82 -158 139 -111 113 -127 122 -297 175 -128 39 -154 52 -162 82 -9 36 11 90 44 122 l31 29 48 -17 c60 -21 75 -21 92 -1 21 26 163 13 381 -35 229 -50 250 -50 430 -5 244 62 560 62 603 0 32 -44 7 -130 -34 -119 -13 3 -23 -2 -30 -15 -8 -14 -26 -22 -62 -27 -77 -11 -124 -39 -49 -30 76 9 62 1 -64 -34 l-109 -30 -112 -108 c-62 -59 -137 -130 -168 -158 -66 -60 -75 -85 -79 -235 l-3 -105 190 -97 c493 -252 765 -254 903 -8 l23 41 -68 -8 c-144 -17 -332 -10 -410 15 -97 30 -93 44 5 20 90 -22 480 -17 515 7 50 35 497 -107 712 -226 50 -27 128 -77 174 -110 46 -33 86 -58 88 -55 10 10 -213 166 -306 214 -123 64 -386 154 -549 188 -137 28 -113 29 -444 -2 -98 -9 -64 11 40 24 247 29 292 36 292 46 0 6 4 4 10 -4 8 -12 11 -12 28 3 10 9 21 15 23 13 2 -3 51 -7 109 -9 107 -5 207 -27 430 -92 63 -18 160 -43 215 -54 55 -12 111 -24 125 -27 17 -4 22 -2 15 5 -5 5 -46 17 -90 26 -44 8 -138 33 -210 55 -456 138 -600 157 -911 126 -219 -22 -247 -19 -79 9 77 13 159 30 182 39 59 21 203 32 203 15 0 -43 29 27 35 84 l7 67 -129 0 c-186 -1 -316 -15 -411 -45 -92 -29 -138 -30 -85 -2 91 48 200 68 408 73 242 7 226 3 213 51 -10 38 -38 79 -38 56 0 -9 -8 -9 -31 -1 -20 7 -70 8 -138 4 -289 -18 -337 -18 -317 -2 48 38 257 86 378 86 66 0 66 0 88 -37 37 -61 34 -21 -3 60 -38 83 -93 148 -171 204 -28 20 -66 50 -85 66 -32 27 -35 28 -47 12 -15 -20 -19 -2 -29 129 -12 156 -49 266 -195 576 -46 96 -98 225 -117 285 -63 199 -54 185 -156 264 -291 227 -367 257 -599 232z m1370 -2070 c12 -1 22 -5 22 -10 0 -5 -44 -9 -97 -8 -114 0 -119 0 -200 -20 -104 -24 -133 -12 -40 18 76 24 125 27 315 20z"/> <path d="M3660 4634 c0 -20 98 -151 137 -183 54 -44 135 -72 223 -76 l75 -4 -64 9 c-163 23 -246 77 -344 225 -15 22 -27 35 -27 29z"/> <path d="M8321 4608 c-32 -52 -101 -113 -166 -147 -69 -36 -36 -32 43 6 50 24 107 84 141 151 18 33 5 27 -18 -10z"/> <path d="M3855 4554 c63 -47 244 -79 525 -94 107 -5 212 -13 233 -16 21 -4 37 -3 37 3 0 10 -257 33 -370 33 -114 0 -242 20 -345 55 -55 19 -91 27 -80 19z"/> <path d="M8070 4519 c-38 -11 -127 -23 -215 -29 -236 -17 -384 -29 -411 -36 -35 -9 -30 -28 5 -21 83 17 318 18 396 3 44 -9 100 -15 125 -15 39 1 36 3 -23 10 -38 5 -92 15 -120 22 l-52 13 100 7 c96 6 236 35 273 56 26 16 -2 12 -78 -10z"/> <path d="M7427 4363 c-27 -27 -3 -31 156 -30 121 2 210 -4 353 -22 152 -20 199 -23 235 -14 l44 11 -65 1 c-36 1 -101 8 -145 16 -217 40 -554 63 -578 38z"/> <path d="M7442 4238 c3 -8 33 -15 79 -19 163 -14 427 -73 734 -164 137 -40 280 -64 296 -48 7 7 -12 12 -56 16 -38 4 -129 27 -215 57 -258 87 -851 199 -838 158z"/> <path d="M4490 4223 c-216 -14 -490 -73 -802 -172 -68 -21 -132 -41 -143 -45 -11 -3 -2 -3 20 0 22 3 83 18 135 34 255 76 616 156 760 167 47 3 94 9 105 14 22 9 18 9 -75 2z"/> <path d="M5905 3746 c-378 -109 -580 -176 -707 -234 -75 -34 -92 -35 -27 -1 23 11 51 29 62 40 12 10 72 35 135 55 129 40 145 55 26 25 -312 -80 -388 -122 -430 -240 -19 -56 -29 -190 -19 -257 l7 -49 13 39 c28 81 95 140 197 175 76 26 75 27 49 -56 -37 -124 -61 -237 -61 -293 l0 -55 38 64 c105 179 158 195 147 43 -6 -93 -5 -99 22 -152 31 -60 53 -76 53 -37 0 50 56 167 79 167 5 0 11 -31 13 -68 5 -71 42 -154 74 -166 21 -8 45 49 85 202 33 124 54 165 37 70 -14 -76 -2 -193 25 -247 33 -68 42 -61 45 36 3 100 13 143 50 222 l27 56 2 -55 c6 -143 37 -244 97 -315 l25 -30 1 129 c0 130 15 218 47 280 l15 30 13 -25 c39 -74 55 -306 28 -404 -11 -40 44 24 81 95 32 61 63 189 67 280 2 55 58 -150 67 -243 10 -116 16 -132 38 -102 27 37 38 100 39 213 0 134 9 123 52 -58 14 -58 27 -111 29 -118 15 -51 90 68 100 158 l7 63 33 -67 c18 -37 36 -91 40 -119 l8 -52 6 45 c5 42 7 45 38 48 l32 3 0 135 c0 74 3 134 8 134 36 0 127 -89 158 -155 l23 -50 0 41 c1 68 -36 258 -58 302 -28 55 -28 56 30 49 113 -14 194 -98 194 -199 -1 -68 11 -56 32 32 40 171 -6 321 -120 394 -80 51 -151 72 -422 126 -137 27 -306 65 -374 85 -145 41 -168 42 -276 11z"/> <path d="M8757 3676 c273 -257 530 -752 597 -1146 78 -465 16 -844 -195 -1198 -102 -170 -283 -458 -375 -594 l-93 -138 102 92 c513 470 685 689 791 1008 81 244 99 665 40 896 -98 376 -366 734 -782 1046 -166 124 -190 134 -85 34z"/> <path d="M7250 2529 c0 -4 7 -23 15 -43 129 -308 106 -669 -60 -961 -25 -43 -42 -81 -40 -86 5 -7 -84 -145 -128 -199 -11 -14 5 1 37 33 32 31 61 57 65 57 9 0 67 85 111 164 45 80 82 188 68 197 -8 5 -3 40 17 116 35 139 42 259 21 387 -18 105 -15 136 4 64 23 -84 30 -96 24 -43 -9 83 -31 146 -84 235 -27 47 -50 82 -50 79z"/> <path d="M4737 2437 c-68 -113 -116 -316 -89 -370 6 -12 13 -35 16 -52 2 -16 3 5 2 48 0 42 2 77 5 77 3 0 12 32 19 72 12 71 57 215 80 257 27 51 1 26 -33 -32z"/> <path d="M5067 2257 c-4 -16 -25 -68 -47 -115 -22 -50 -41 -111 -45 -142 l-6 -55 19 45 c21 48 50 63 78 40 11 -10 14 -10 14 1 1 9 5 8 15 -5 18 -23 19 -9 4 31 -6 15 -14 73 -17 128 -6 74 -9 93 -15 72z"/> <path d="M6950 2218 c0 -68 -36 -261 -55 -298 -8 -15 -21 -69 -29 -121 -28 -171 -74 -303 -174 -504 -57 -115 -169 -311 -194 -340 -13 -15 -27 -33 -33 -40 -5 -6 -35 -38 -65 -70 -105 -112 -16 -34 243 215 86 82 157 167 161 193 1 6 7 22 14 33 6 12 8 24 4 28 -3 4 1 4 11 0 13 -4 16 -2 11 9 -12 32 24 79 56 72 21 -5 31 -1 42 14 8 12 17 19 20 16 3 -3 22 26 43 65 20 40 34 74 31 77 -3 4 -6 2 -6 -4 0 -6 -19 -14 -42 -18 -24 -4 -51 -9 -60 -11 -10 -2 -18 0 -18 5 0 5 -8 8 -17 7 -12 0 -19 7 -21 22 -2 12 -7 22 -11 22 -5 0 -4 21 2 48 5 26 10 57 9 70 0 12 6 22 13 22 8 0 23 12 34 26 12 15 21 22 21 15 0 -16 21 -14 34 5 6 8 18 16 26 18 37 6 60 18 60 32 0 8 5 14 10 14 27 0 -13 204 -65 327 -49 113 -55 119 -55 51z"/> <path d="M8476 1830 c-22 -63 -50 -139 -63 -169 -33 -76 -25 -72 36 19 65 98 97 175 82 204 -5 12 -11 30 -13 41 -2 11 -21 -32 -42 -95z"/> <path d="M5686 1396 c5 -21 4 -27 -5 -22 -33 21 0 -159 55 -297 19 -49 31 -93 28 -99 -4 -7 -2 -8 4 -4 12 7 38 -42 27 -52 -5 -5 38 -67 60 -87 7 -5 36 -38 65 -72 98 -116 89 -85 -95 337 -139 319 -152 348 -139 296z"/> <path d="M6150 972 c0 -7 -4 -11 -9 -8 -5 3 -31 -45 -59 -107 -72 -164 -73 -167 -17 -116 71 67 125 142 125 173 0 20 4 27 14 23 8 -3 17 1 20 8 9 23 -9 26 -32 5 -12 -11 -27 -20 -34 -20 -10 0 -10 2 1 9 10 7 11 13 2 27 -6 11 -11 13 -11 6z"/> </g> </svg>